<svg width="107" height="14" viewBox="0 0 107 14" fill="none" xmlns="http://www.w3.org/2000/svg">
<path d="M0.303223 1.27283H4.54562C6.96984 1.27283 8.48498 2.78801 8.48498 4.9092C8.48498 6.72737 7.5759 7.9395 6.06076 8.24253L8.78801 13.394H6.36379L3.93956 8.54549H2.12139V13.394H0.303223V1.27283ZM3.93956 7.03034C5.4547 7.03034 6.06076 6.42434 6.06076 4.9092C6.06076 3.69709 5.4547 2.78797 3.93956 2.78797H2.12139V7.03034H3.93956Z" fill="white"/>
<path d="M12.7274 9.75744V4.90897C12.7274 2.18171 14.5456 0.969543 16.9698 0.969543C19.394 0.969543 21.2122 2.18171 21.2122 4.90897V9.75744C21.2122 12.4847 19.394 13.6968 16.9698 13.6968C14.5456 13.6968 12.7274 12.4847 12.7274 9.75744ZM19.091 9.75744V4.90897C19.091 3.39382 18.1819 2.78773 16.6668 2.78773C15.1516 2.78773 14.5456 3.69687 14.5456 5.21201V9.75744C14.5456 11.2726 15.4547 11.8786 16.9698 11.8786C18.1819 11.8786 19.091 10.9695 19.091 9.75744Z" fill="white"/>
<path d="M25.4546 9.75744V4.90897C25.4546 2.18171 27.2728 0.969543 29.697 0.969543C32.1212 0.969543 33.9394 2.18171 33.9394 4.90897V9.75744C33.9394 12.4847 32.1212 13.6968 29.697 13.6968C27.5758 13.6968 25.4546 12.4847 25.4546 9.75744ZM32.1212 9.75744V4.90897C32.1212 3.39382 31.2121 2.78773 29.697 2.78773C28.1818 2.78773 27.5758 3.69687 27.5758 5.21201V9.75744C27.5758 11.2726 28.4849 11.8786 30 11.8786C31.2121 11.8786 32.1212 10.9695 32.1212 9.75744Z" fill="white"/>
<path d="M40.909 2.78797H37.5757V1.27283H46.3635V2.78797H43.0302V13.394H40.909V2.78797Z" fill="white"/>
<path d="M49.3937 12.1819L50.3028 10.6667C51.2118 11.2728 52.1209 11.8788 53.6361 11.8788C54.8482 11.8788 55.7573 11.2728 55.7573 10.3637C55.7573 9.45459 54.8482 8.84851 53.9391 8.54549L52.1209 7.93949C50.6058 7.33343 49.6967 6.1213 49.6967 4.60616C49.6967 2.78799 51.2118 1.27283 53.6361 1.27283C54.8482 1.27283 56.0603 1.57584 57.2724 2.48492L56.3633 4.00006C55.4542 3.39401 54.8482 3.09101 53.6361 3.09101C52.424 3.09101 51.8179 3.69707 51.8179 4.60616C51.8179 5.51524 52.424 5.81829 53.333 6.42434L54.8482 7.03034C56.6664 7.6364 57.5754 8.84853 57.5754 10.3637C57.5754 12.4849 55.7573 14 53.333 14C52.1209 13.697 50.6058 13.0909 49.3937 12.1819Z" fill="white"/>
<path d="M63.9391 2.78797H60.6058V1.27283H69.3937V2.78797H66.0603V13.394H63.9391V2.78797Z" fill="white"/>
<path d="M73.3329 1.27283H77.5753C79.9995 1.27283 81.5146 2.78801 81.5146 4.9092C81.5146 6.72737 80.6056 7.9395 79.0904 8.24253L81.8177 13.394H79.6965L77.2723 8.54549H75.7571V13.394H73.6359V1.27283H73.3329ZM77.2723 7.03034C78.7874 7.03034 79.3935 6.42434 79.3935 4.9092C79.3935 3.69709 78.7874 2.78797 77.2723 2.78797H75.4541V7.03034H77.2723Z" fill="white"/>
<path d="M88.4845 1.27283H90.9087L94.545 13.394H92.4239L91.5148 10.0606H87.5754L86.6663 13.394H84.8481L88.4845 1.27283ZM91.2117 8.54549L89.6966 3.09101L88.1815 8.54549H91.2117Z" fill="white"/>
<path d="M98.4844 1.27283H102.727C105.151 1.27283 106.363 2.78801 106.363 4.9092C106.363 7.0304 105.151 8.84853 102.424 8.84853H100.303V13.394H98.1814V1.27283H98.4844ZM102.121 7.33339C103.636 7.33339 104.242 6.42434 104.242 4.9092C104.242 3.69709 103.636 2.78797 102.121 2.78797H100.303V7.33339H102.121Z" fill="white"/>
</svg>
